<svg xmlns="http://www.w3.org/2000/svg" xmlns:xlink="http://www.w3.org/1999/xlink" xmlns:lucid="lucid" width="1322" height="622"><g transform="translate(-139 -219)" lucid:page-tab-id="0_0"><g filter="url(#a)"><path d="M160 246a6 6 0 0 1 6-6h308a6 6 0 0 1 6 6v205.5a6 6 0 0 1-6 6H166a6 6 0 0 1-6-6z" stroke="#ef9c49" stroke-width="4" fill="#fff"/><use xlink:href="#b" transform="matrix(1,0,0,1,160,240) translate(12.746975308642087 93.49027777777775)"/><use xlink:href="#c" transform="matrix(1,0,0,1,160,240) translate(148.83216049382716 93.49027777777775)"/><use xlink:href="#d" transform="matrix(1,0,0,1,160,240) translate(26.09851851851861 141.7569444444444)"/><use xlink:href="#e" transform="matrix(1,0,0,1,160,240) translate(104.30839506172843 141.7569444444444)"/></g><g filter="url(#a)"><path d="M640 246a6 6 0 0 1 6-6h308a6 6 0 0 1 6 6v205.5a6 6 0 0 1-6 6H646a6 6 0 0 1-6-6z" stroke="#ef9c49" stroke-width="2" fill="#fffada"/><use xlink:href="#f" transform="matrix(1,0,0,1,640,240) translate(21.126604938271733 113.92777777777775)"/><use xlink:href="#g" transform="matrix(1,0,0,1,640,240) translate(151.7370987654321 113.92777777777775)"/><use xlink:href="#h" transform="matrix(1,0,0,1,640,240) translate(229.94697530864192 113.92777777777775)"/></g><g filter="url(#a)"><path d="M1120 246a6 6 0 0 1 6-6h308a6 6 0 0 1 6 6v205.5a6 6 0 0 1-6 6h-308a6 6 0 0 1-6-6z" stroke="#ef9c49" stroke-width="2" fill="#fffada"/><use xlink:href="#i" transform="matrix(1,0,0,1,1120,240) translate(23.025987654321092 66.24027777777775)"/><use xlink:href="#j" transform="matrix(1,0,0,1,1120,240) translate(192.85314814814814 66.24027777777775)"/><use xlink:href="#k" transform="matrix(1,0,0,1,1120,240) translate(79.72814814814821 114.5069444444444)"/><use xlink:href="#l" transform="matrix(1,0,0,1,1120,240) translate(162.29543209876545 114.5069444444444)"/><use xlink:href="#m" transform="matrix(1,0,0,1,1120,240) translate(80.73370370370377 162.77361111111102)"/><use xlink:href="#n" transform="matrix(1,0,0,1,1120,240) translate(147.77074074074073 162.77361111111102)"/></g><g filter="url(#a)"><path d="M160 608.5a6 6 0 0 1 6-6h308a6 6 0 0 1 6 6V814a6 6 0 0 1-6 6H166a6 6 0 0 1-6-6z" stroke="#ef9c49" stroke-width="2" fill="#fffada"/><use xlink:href="#f" transform="matrix(1,0,0,1,160,602.5) translate(26.601296296296404 66.24027777777775)"/><use xlink:href="#o" transform="matrix(1,0,0,1,160,602.5) translate(157.21179012345678 66.24027777777775)"/><use xlink:href="#p" transform="matrix(1,0,0,1,160,602.5) translate(61.68401234567907 114.5069444444444)"/><use xlink:href="#q" transform="matrix(1,0,0,1,160,602.5) translate(224.80746913580242 114.5069444444444)"/><use xlink:href="#r" transform="matrix(1,0,0,1,160,602.5) translate(89.7278395061729 162.77361111111102)"/></g><g filter="url(#a)"><path d="M640 608.5a6 6 0 0 1 6-6h308a6 6 0 0 1 6 6V814a6 6 0 0 1-6 6H646a6 6 0 0 1-6-6z" stroke="#ef9c49" stroke-width="2" fill="#fffada"/><use xlink:href="#s" transform="matrix(1,0,0,1,640,602.5) translate(37.21549382716058 66.24027777777775)"/><use xlink:href="#t" transform="matrix(1,0,0,1,640,602.5) translate(173.30067901234565 66.24027777777775)"/><use xlink:href="#u" transform="matrix(1,0,0,1,640,602.5) translate(23.808086419753188 114.5069444444444)"/><use xlink:href="#v" transform="matrix(1,0,0,1,640,602.5) translate(164.3624074074074 114.5069444444444)"/><use xlink:href="#w" transform="matrix(1,0,0,1,640,602.5) translate(60.790185185185244 162.77361111111102)"/></g><path d="M482.96 348.75h137.57" stroke="#e45e2d" stroke-width="2" fill="none"/><path d="M483 349.75h-1.04v-2H483z" stroke="#e45e2d" stroke-width=".05" fill="#e45e2d"/><path d="M635.8 348.75l-14.27 4.64v-9.3z" stroke="#e45e2d" stroke-width="2" fill="#e45e2d"/><path d="M961.96 348.75h138.57" stroke="#e45e2d" stroke-width="2" fill="none"/><path d="M962 349.75h-1.04v-2H962z" stroke="#e45e2d" stroke-width=".05" fill="#e45e2d"/><path d="M1115.8 348.75l-14.27 4.64v-9.3z" stroke="#e45e2d" stroke-width="2" fill="#e45e2d"/><g filter="url(#a)"><path d="M1120 608.5a6 6 0 0 1 6-6h308a6 6 0 0 1 6 6V814a6 6 0 0 1-6 6h-308a6 6 0 0 1-6-6z" stroke="#ef9c49" stroke-width="2" fill="#fffada"/><use xlink:href="#x" transform="matrix(1,0,0,1,1120,602.5) translate(19.394814814814943 93.49027777777775)"/><use xlink:href="#y" transform="matrix(1,0,0,1,1120,602.5) translate(90.90098765432107 93.49027777777775)"/><use xlink:href="#z" transform="matrix(1,0,0,1,1120,602.5) translate(233.5781481481481 93.49027777777775)"/><use xlink:href="#A" transform="matrix(1,0,0,1,1120,602.5) translate(79.61641975308648 141.7569444444444)"/></g><path d="M1279.94 459.46l-.05.34-.08.34-.08.34-.1.35-.1.35-.14.36-.16.37-.18.4-.2.4-.24.4-.28.43-.3.45-.37.47-.42.5-.48.54-.56.56-.65.62-.77.67-.92.73-1.1.8-1.35.9-1.65 1-2.06 1.12-2.63 1.3-3.4 1.5-4.54 1.8-6.23 2.16-8.9 2.67-13.43 3.42-21.75 4.58-39.38 6.56-88.1 10.8-646.78 57.4-39.38 6.57-21.75 4.58-13.42 3.42-8.9 2.67-6.23 2.16-4.53 1.8-3.4 1.5-2.63 1.3-.5.28" stroke="#e45e2d" stroke-width="2" stroke-linejoin="round" fill="none"/><path d="M1280.98 459.5l-2-.03.02-1h2z" stroke="#e45e2d" stroke-width=".05" fill="#e45e2d"/><path d="M322.16 599.13l6.07-13.72 6.9 6.2z" stroke="#e45e2d" stroke-width="2" fill="#e45e2d"/><path d="M481.96 711.25h138.57" stroke="#e45e2d" stroke-width="2" fill="none"/><path d="M482 712.25h-1.04v-2H482z" stroke="#e45e2d" stroke-width=".05" fill="#e45e2d"/><path d="M635.8 711.25l-14.27 4.64v-9.3z" stroke="#e45e2d" stroke-width="2" fill="#e45e2d"/><path d="M961.96 711.25h138.57" stroke="#e45e2d" stroke-width="2" fill="none"/><path d="M962 712.25h-1.04v-2H962z" stroke="#e45e2d" stroke-width=".05" fill="#e45e2d"/><path d="M1115.8 711.25l-14.27 4.64v-9.3z" stroke="#e45e2d" stroke-width="2" fill="#e45e2d"/><defs><path fill="#282c33" d="M30-248c87 1 191-15 191 75 0 78-77 80-158 76V0H30v-248zm33 125c57 0 124 11 124-50 0-59-68-47-124-48v98" id="B"/><path fill="#282c33" d="M114-163C36-179 61-72 57 0H25l-1-190h30c1 12-1 29 2 39 6-27 23-49 58-41v29" id="C"/><path fill="#282c33" d="M100-194c62-1 85 37 85 99 1 63-27 99-86 99S16-35 15-95c0-66 28-99 85-99zM99-20c44 1 53-31 53-75 0-43-8-75-51-75s-53 32-53 75 10 74 51 75" id="D"/><path fill="#282c33" d="M24-231v-30h32v30H24zM-9 49c24 4 33-6 33-30v-209h32V24c2 40-23 58-65 49V49" id="E"/><path fill="#282c33" d="M100-194c63 0 86 42 84 106H49c0 40 14 67 53 68 26 1 43-12 49-29l28 8c-11 28-37 45-77 45C44 4 14-33 15-96c1-61 26-98 85-98zm52 81c6-60-76-77-97-28-3 7-6 17-6 28h103" id="F"/><path fill="#282c33" d="M96-169c-40 0-48 33-48 73s9 75 48 75c24 0 41-14 43-38l32 2c-6 37-31 61-74 61-59 0-76-41-82-99-10-93 101-131 147-64 4 7 5 14 7 22l-32 3c-4-21-16-35-41-35" id="G"/><path fill="#282c33" d="M59-47c-2 24 18 29 38 22v24C64 9 27 4 27-40v-127H5v-23h24l9-43h21v43h35v23H59v120" id="H"/><g id="b"><use transform="matrix(0.11172839506172831,0,0,0.11172839506172831,0,0)" xlink:href="#B"/><use transform="matrix(0.11172839506172831,0,0,0.11172839506172831,26.814814814814795,0)" xlink:href="#C"/><use transform="matrix(0.11172839506172831,0,0,0.11172839506172831,40.11049382716047,0)" xlink:href="#D"/><use transform="matrix(0.11172839506172831,0,0,0.11172839506172831,62.456172839506124,0)" xlink:href="#E"/><use transform="matrix(0.11172839506172831,0,0,0.11172839506172831,71.28271604938267,0)" xlink:href="#F"/><use transform="matrix(0.11172839506172831,0,0,0.11172839506172831,93.62839506172833,0)" xlink:href="#G"/><use transform="matrix(0.11172839506172831,0,0,0.11172839506172831,113.73950617283943,0)" xlink:href="#H"/></g><path fill="#282c33" d="M135-143c-3-34-86-38-87 0 15 53 115 12 119 90S17 21 10-45l28-5c4 36 97 45 98 0-10-56-113-15-118-90-4-57 82-63 122-42 12 7 21 19 24 35" id="I"/><path fill="#282c33" d="M24 0v-261h32V0H24" id="J"/><path fill="#282c33" d="M24-231v-30h32v30H24zM24 0v-190h32V0H24" id="K"/><path fill="#282c33" d="M117-194c89-4 53 116 60 194h-32v-121c0-31-8-49-39-48C34-167 62-67 57 0H25l-1-190h30c1 10-1 24 2 32 11-22 29-35 61-36" id="L"/><g id="c"><use transform="matrix(0.11172839506172831,0,0,0.11172839506172831,0,0)" xlink:href="#I"/><use transform="matrix(0.11172839506172831,0,0,0.11172839506172831,20.111111111111097,0)" xlink:href="#F"/><use transform="matrix(0.11172839506172831,0,0,0.11172839506172831,42.456790123456756,0)" xlink:href="#J"/><use transform="matrix(0.11172839506172831,0,0,0.11172839506172831,51.28333333333329,0)" xlink:href="#F"/><use transform="matrix(0.11172839506172831,0,0,0.11172839506172831,73.62901234567894,0)" xlink:href="#G"/><use transform="matrix(0.11172839506172831,0,0,0.11172839506172831,93.74012345679004,0)" xlink:href="#H"/><use transform="matrix(0.11172839506172831,0,0,0.11172839506172831,104.91296296296288,0)" xlink:href="#K"/><use transform="matrix(0.11172839506172831,0,0,0.11172839506172831,113.73950617283941,0)" xlink:href="#D"/><use transform="matrix(0.11172839506172831,0,0,0.11172839506172831,136.08518518518508,0)" xlink:href="#L"/></g><path fill="#282c33" d="M141-36C126-15 110 5 73 4 37 3 15-17 15-53c-1-64 63-63 125-63 3-35-9-54-41-54-24 1-41 7-42 31l-33-3c5-37 33-52 76-52 45 0 72 20 72 64v82c-1 20 7 32 28 27v20c-31 9-61-2-59-35zM48-53c0 20 12 33 32 33 41-3 63-29 60-74-43 2-92-5-92 41" id="M"/><path fill="#282c33" d="M85-194c31 0 48 13 60 33l-1-100h32l1 261h-30c-2-10 0-23-3-31C134-8 116 4 85 4 32 4 16-35 15-94c0-66 23-100 70-100zm9 24c-40 0-46 34-46 75 0 40 6 74 45 74 42 0 51-32 51-76 0-42-9-74-50-73" id="N"/><g id="d"><use transform="matrix(0.11172839506172831,0,0,0.11172839506172831,0,0)" xlink:href="#M"/><use transform="matrix(0.11172839506172831,0,0,0.11172839506172831,22.345679012345663,0)" xlink:href="#L"/><use transform="matrix(0.11172839506172831,0,0,0.11172839506172831,44.691358024691326,0)" xlink:href="#N"/></g><path fill="#282c33" d="M101-234c-31-9-42 10-38 44h38v23H63V0H32v-167H5v-23h27c-7-52 17-82 69-68v24" id="O"/><path fill="#282c33" d="M210-169c-67 3-38 105-44 169h-31v-121c0-29-5-50-35-48C34-165 62-65 56 0H25l-1-190h30c1 10-1 24 2 32 10-44 99-50 107 0 11-21 27-35 58-36 85-2 47 119 55 194h-31v-121c0-29-5-49-35-48" id="P"/><g id="e"><use transform="matrix(0.11172839506172831,0,0,0.11172839506172831,0,0)" xlink:href="#C"/><use transform="matrix(0.11172839506172831,0,0,0.11172839506172831,13.29567901234567,0)" xlink:href="#F"/><use transform="matrix(0.11172839506172831,0,0,0.11172839506172831,35.64135802469133,0)" xlink:href="#O"/><use transform="matrix(0.11172839506172831,0,0,0.11172839506172831,46.81419753086416,0)" xlink:href="#K"/><use transform="matrix(0.11172839506172831,0,0,0.11172839506172831,55.640740740740696,0)" xlink:href="#L"/><use transform="matrix(0.11172839506172831,0,0,0.11172839506172831,77.98641975308635,0)" xlink:href="#F"/><use transform="matrix(0.11172839506172831,0,0,0.11172839506172831,100.33209876543202,0)" xlink:href="#P"/><use transform="matrix(0.11172839506172831,0,0,0.11172839506172831,133.7388888888888,0)" xlink:href="#F"/><use transform="matrix(0.11172839506172831,0,0,0.11172839506172831,156.08456790123446,0)" xlink:href="#L"/><use transform="matrix(0.11172839506172831,0,0,0.11172839506172831,178.43024691358013,0)" xlink:href="#H"/></g><filter id="a" filterUnits="objectBoundingBox" x="-.03" y="-.02" width="1.06" height="1.09"><feOffset result="offOut" in="SourceAlpha" dy="6"/><feGaussianBlur result="blurOut" in="offOut" stdDeviation="5"/><feColorMatrix result="colorOut" in="blurOut" values="0 0 0 0 0 0 0 0 0 0 0 0 0 0 0 0 0 0 0.5019607843137255 0"/><feBlend in="SourceGraphic" in2="colorOut"/></filter><path fill="#8b412b" d="M212-179c-10-28-35-45-73-45-59 0-87 40-87 99 0 60 29 101 89 101 43 0 62-24 78-52l27 14C228-24 195 4 139 4 59 4 22-46 18-125c-6-104 99-153 187-111 19 9 31 26 39 46" id="Q"/><path fill="#8b412b" d="M100-194c62-1 85 37 85 99 1 63-27 99-86 99S16-35 15-95c0-66 28-99 85-99zM99-20c44 1 53-31 53-75 0-43-8-75-51-75s-53 32-53 75 10 74 51 75" id="R"/><path fill="#8b412b" d="M85-194c31 0 48 13 60 33l-1-100h32l1 261h-30c-2-10 0-23-3-31C134-8 116 4 85 4 32 4 16-35 15-94c0-66 23-100 70-100zm9 24c-40 0-46 34-46 75 0 40 6 74 45 74 42 0 51-32 51-76 0-42-9-74-50-73" id="S"/><path fill="#8b412b" d="M100-194c63 0 86 42 84 106H49c0 40 14 67 53 68 26 1 43-12 49-29l28 8c-11 28-37 45-77 45C44 4 14-33 15-96c1-61 26-98 85-98zm52 81c6-60-76-77-97-28-3 7-6 17-6 28h103" id="T"/><path fill="#8b412b" d="M118-107v75H92v-75H18v-26h74v-75h26v75h74v26h-74" id="U"/><g id="f"><use transform="matrix(0.11172839506172831,0,0,0.11172839506172831,0,0)" xlink:href="#Q"/><use transform="matrix(0.11172839506172831,0,0,0.11172839506172831,28.937654320987633,0)" xlink:href="#R"/><use transform="matrix(0.11172839506172831,0,0,0.11172839506172831,51.283333333333296,0)" xlink:href="#S"/><use transform="matrix(0.11172839506172831,0,0,0.11172839506172831,73.62901234567896,0)" xlink:href="#T"/><use transform="matrix(0.11172839506172831,0,0,0.11172839506172831,95.97469135802461,0)" xlink:href="#U"/></g><path fill="#8b412b" d="M33 0v-248h34V0H33" id="V"/><path fill="#8b412b" d="M117-194c89-4 53 116 60 194h-32v-121c0-31-8-49-39-48C34-167 62-67 57 0H25l-1-190h30c1 10-1 24 2 32 11-22 29-35 61-36" id="W"/><path fill="#8b412b" d="M101-234c-31-9-42 10-38 44h38v23H63V0H32v-167H5v-23h27c-7-52 17-82 69-68v24" id="X"/><g id="g"><use transform="matrix(0.11172839506172831,0,0,0.11172839506172831,0,0)" xlink:href="#V"/><use transform="matrix(0.11172839506172831,0,0,0.11172839506172831,11.172839506172831,0)" xlink:href="#W"/><use transform="matrix(0.11172839506172831,0,0,0.11172839506172831,33.51851851851849,0)" xlink:href="#X"/><use transform="matrix(0.11172839506172831,0,0,0.11172839506172831,44.691358024691326,0)" xlink:href="#R"/></g><path fill="#8b412b" d="M63-220v92h138v28H63V0H30v-248h175v28H63" id="Y"/><path fill="#8b412b" d="M141-36C126-15 110 5 73 4 37 3 15-17 15-53c-1-64 63-63 125-63 3-35-9-54-41-54-24 1-41 7-42 31l-33-3c5-37 33-52 76-52 45 0 72 20 72 64v82c-1 20 7 32 28 27v20c-31 9-61-2-59-35zM48-53c0 20 12 33 32 33 41-3 63-29 60-74-43 2-92-5-92 41" id="Z"/><path fill="#8b412b" d="M24-231v-30h32v30H24zM24 0v-190h32V0H24" id="aa"/><path fill="#8b412b" d="M114-163C36-179 61-72 57 0H25l-1-190h30c1 12-1 29 2 39 6-27 23-49 58-41v29" id="ab"/><g id="h"><use transform="matrix(0.11172839506172831,0,0,0.11172839506172831,0,0)" xlink:href="#Y"/><use transform="matrix(0.11172839506172831,0,0,0.11172839506172831,24.4685185185185,0)" xlink:href="#Z"/><use transform="matrix(0.11172839506172831,0,0,0.11172839506172831,46.81419753086416,0)" xlink:href="#aa"/><use transform="matrix(0.11172839506172831,0,0,0.11172839506172831,55.640740740740696,0)" xlink:href="#ab"/></g><path fill="#8b412b" d="M185-189c-5-48-123-54-124 2 14 75 158 14 163 119 3 78-121 87-175 55-17-10-28-26-33-46l33-7c5 56 141 63 141-1 0-78-155-14-162-118-5-82 145-84 179-34 5 7 8 16 11 25" id="ac"/><path fill="#8b412b" d="M59-47c-2 24 18 29 38 22v24C64 9 27 4 27-40v-127H5v-23h24l9-43h21v43h35v23H59v120" id="ad"/><path fill="#8b412b" d="M84 4C-5 8 30-112 23-190h32v120c0 31 7 50 39 49 72-2 45-101 50-169h31l1 190h-30c-1-10 1-25-2-33-11 22-28 36-60 37" id="ae"/><path fill="#8b412b" d="M135-143c-3-34-86-38-87 0 15 53 115 12 119 90S17 21 10-45l28-5c4 36 97 45 98 0-10-56-113-15-118-90-4-57 82-63 122-42 12 7 21 19 24 35" id="af"/><g id="i"><use transform="matrix(0.11172839506172831,0,0,0.11172839506172831,0,0)" xlink:href="#ac"/><use transform="matrix(0.11172839506172831,0,0,0.11172839506172831,26.814814814814795,0)" xlink:href="#ad"/><use transform="matrix(0.11172839506172831,0,0,0.11172839506172831,37.98765432098763,0)" xlink:href="#ae"/><use transform="matrix(0.11172839506172831,0,0,0.11172839506172831,60.333333333333286,0)" xlink:href="#S"/><use transform="matrix(0.11172839506172831,0,0,0.11172839506172831,82.67901234567896,0)" xlink:href="#T"/><use transform="matrix(0.11172839506172831,0,0,0.11172839506172831,105.02469135802463,0)" xlink:href="#W"/><use transform="matrix(0.11172839506172831,0,0,0.11172839506172831,127.3703703703703,0)" xlink:href="#ad"/><use transform="matrix(0.11172839506172831,0,0,0.11172839506172831,138.54320987654313,0)" xlink:href="#af"/></g><path fill="#8b412b" d="M115-194c55 1 70 41 70 98S169 2 115 4C84 4 66-9 55-30l1 105H24l-1-265h31l2 30c10-21 28-34 59-34zm-8 174c40 0 45-34 45-75s-6-73-45-74c-42 0-51 32-51 76 0 43 10 73 51 73" id="ag"/><path fill="#8b412b" d="M24 0v-261h32V0H24" id="ah"/><path fill="#8b412b" d="M179-190L93 31C79 59 56 82 12 73V49c39 6 53-20 64-50L1-190h34L92-34l54-156h33" id="ai"/><path fill="#8b412b" d="M68-38c1 34 0 65-14 84H32c9-13 17-26 17-46H33v-38h35" id="aj"/><g id="j"><use transform="matrix(0.11172839506172831,0,0,0.11172839506172831,0,0)" xlink:href="#Z"/><use transform="matrix(0.11172839506172831,0,0,0.11172839506172831,22.345679012345663,0)" xlink:href="#ag"/><use transform="matrix(0.11172839506172831,0,0,0.11172839506172831,44.691358024691326,0)" xlink:href="#ag"/><use transform="matrix(0.11172839506172831,0,0,0.11172839506172831,67.03703703703698,0)" xlink:href="#ah"/><use transform="matrix(0.11172839506172831,0,0,0.11172839506172831,75.86358024691351,0)" xlink:href="#ai"/><use transform="matrix(0.11172839506172831,0,0,0.11172839506172831,92.95802469135795,0)" xlink:href="#aj"/></g><path fill="#8b412b" d="M96-169c-40 0-48 33-48 73s9 75 48 75c24 0 41-14 43-38l32 2c-6 37-31 61-74 61-59 0-76-41-82-99-10-93 101-131 147-64 4 7 5 14 7 22l-32 3c-4-21-16-35-41-35" id="ak"/><path fill="#8b412b" d="M143 0L79-87 56-68V0H24v-261h32v163l83-92h37l-77 82L181 0h-38" id="al"/><g id="k"><use transform="matrix(0.11172839506172831,0,0,0.11172839506172831,0,0)" xlink:href="#ag"/><use transform="matrix(0.11172839506172831,0,0,0.11172839506172831,22.345679012345663,0)" xlink:href="#aa"/><use transform="matrix(0.11172839506172831,0,0,0.11172839506172831,31.1722222222222,0)" xlink:href="#ak"/><use transform="matrix(0.11172839506172831,0,0,0.11172839506172831,51.283333333333296,0)" xlink:href="#al"/></g><path fill="#8b412b" d="M106-169C34-169 62-67 57 0H25v-261h32l-1 103c12-21 28-36 61-36 89 0 53 116 60 194h-32v-121c2-32-8-49-39-48" id="am"/><g id="l"><use transform="matrix(0.11172839506172831,0,0,0.11172839506172831,0,0)" xlink:href="#ad"/><use transform="matrix(0.11172839506172831,0,0,0.11172839506172831,11.172839506172831,0)" xlink:href="#am"/><use transform="matrix(0.11172839506172831,0,0,0.11172839506172831,33.51851851851849,0)" xlink:href="#T"/><use transform="matrix(0.11172839506172831,0,0,0.11172839506172831,55.86419753086415,0)" xlink:href="#aa"/><use transform="matrix(0.11172839506172831,0,0,0.11172839506172831,64.6907407407407,0)" xlink:href="#ab"/></g><g id="m"><use transform="matrix(0.11172839506172831,0,0,0.11172839506172831,0,0)" xlink:href="#ad"/><use transform="matrix(0.11172839506172831,0,0,0.11172839506172831,11.172839506172831,0)" xlink:href="#R"/><use transform="matrix(0.11172839506172831,0,0,0.11172839506172831,33.51851851851849,0)" xlink:href="#ag"/></g><g id="n"><use transform="matrix(0.11172839506172831,0,0,0.11172839506172831,0,0)" xlink:href="#ad"/><use transform="matrix(0.11172839506172831,0,0,0.11172839506172831,11.172839506172831,0)" xlink:href="#am"/><use transform="matrix(0.11172839506172831,0,0,0.11172839506172831,33.51851851851849,0)" xlink:href="#ab"/><use transform="matrix(0.11172839506172831,0,0,0.11172839506172831,46.81419753086416,0)" xlink:href="#T"/><use transform="matrix(0.11172839506172831,0,0,0.11172839506172831,69.15987654320983,0)" xlink:href="#T"/></g><path fill="#8b412b" d="M177-190C167-65 218 103 67 71c-23-6-38-20-44-43l32-5c15 47 100 32 89-28v-30C133-14 115 1 83 1 29 1 15-40 15-95c0-56 16-97 71-98 29-1 48 16 59 35 1-10 0-23 2-32h30zM94-22c36 0 50-32 50-73 0-42-14-75-50-75-39 0-46 34-46 75s6 73 46 73" id="an"/><g id="o"><use transform="matrix(0.11172839506172831,0,0,0.11172839506172831,0,0)" xlink:href="#Z"/><use transform="matrix(0.11172839506172831,0,0,0.11172839506172831,22.345679012345663,0)" xlink:href="#af"/><use transform="matrix(0.11172839506172831,0,0,0.11172839506172831,42.456790123456756,0)" xlink:href="#af"/><use transform="matrix(0.11172839506172831,0,0,0.11172839506172831,62.567901234567856,0)" xlink:href="#aa"/><use transform="matrix(0.11172839506172831,0,0,0.11172839506172831,71.39444444444439,0)" xlink:href="#an"/><use transform="matrix(0.11172839506172831,0,0,0.11172839506172831,93.74012345679006,0)" xlink:href="#W"/><use transform="matrix(0.11172839506172831,0,0,0.11172839506172831,116.08580246913574,0)" xlink:href="#af"/></g><g id="p"><use transform="matrix(0.11172839506172831,0,0,0.11172839506172831,0,0)" xlink:href="#af"/><use transform="matrix(0.11172839506172831,0,0,0.11172839506172831,20.111111111111097,0)" xlink:href="#ad"/><use transform="matrix(0.11172839506172831,0,0,0.11172839506172831,31.283950617283928,0)" xlink:href="#ae"/><use transform="matrix(0.11172839506172831,0,0,0.11172839506172831,53.62962962962959,0)" xlink:href="#S"/><use transform="matrix(0.11172839506172831,0,0,0.11172839506172831,75.97530864197526,0)" xlink:href="#T"/><use transform="matrix(0.11172839506172831,0,0,0.11172839506172831,98.32098765432093,0)" xlink:href="#W"/><use transform="matrix(0.11172839506172831,0,0,0.11172839506172831,120.6666666666666,0)" xlink:href="#ad"/><use transform="matrix(0.11172839506172831,0,0,0.11172839506172831,131.83950617283944,0)" xlink:href="#af"/></g><g id="q"><use transform="matrix(0.11172839506172831,0,0,0.11172839506172831,0,0)" xlink:href="#ad"/><use transform="matrix(0.11172839506172831,0,0,0.11172839506172831,11.172839506172831,0)" xlink:href="#R"/></g><path fill="#8b412b" d="M24-231v-30h32v30H24zM-9 49c24 4 33-6 33-30v-209h32V24c2 40-23 58-65 49V49" id="ao"/><g id="r"><use transform="matrix(0.11172839506172831,0,0,0.11172839506172831,0,0)" xlink:href="#ag"/><use transform="matrix(0.11172839506172831,0,0,0.11172839506172831,22.345679012345663,0)" xlink:href="#ab"/><use transform="matrix(0.11172839506172831,0,0,0.11172839506172831,35.64135802469133,0)" xlink:href="#R"/><use transform="matrix(0.11172839506172831,0,0,0.11172839506172831,57.98703703703699,0)" xlink:href="#ao"/><use transform="matrix(0.11172839506172831,0,0,0.11172839506172831,66.81358024691353,0)" xlink:href="#T"/><use transform="matrix(0.11172839506172831,0,0,0.11172839506172831,89.15925925925919,0)" xlink:href="#ak"/><use transform="matrix(0.11172839506172831,0,0,0.11172839506172831,109.27037037037029,0)" xlink:href="#ad"/><use transform="matrix(0.11172839506172831,0,0,0.11172839506172831,120.44320987654312,0)" xlink:href="#af"/></g><path fill="#8b412b" d="M30-248c87 1 191-15 191 75 0 78-77 80-158 76V0H30v-248zm33 125c57 0 124 11 124-50 0-59-68-47-124-48v98" id="ap"/><g id="s"><use transform="matrix(0.11172839506172831,0,0,0.11172839506172831,0,0)" xlink:href="#ap"/><use transform="matrix(0.11172839506172831,0,0,0.11172839506172831,26.814814814814795,0)" xlink:href="#ab"/><use transform="matrix(0.11172839506172831,0,0,0.11172839506172831,40.11049382716047,0)" xlink:href="#R"/><use transform="matrix(0.11172839506172831,0,0,0.11172839506172831,62.456172839506124,0)" xlink:href="#ao"/><use transform="matrix(0.11172839506172831,0,0,0.11172839506172831,71.28271604938267,0)" xlink:href="#T"/><use transform="matrix(0.11172839506172831,0,0,0.11172839506172831,93.62839506172833,0)" xlink:href="#ak"/><use transform="matrix(0.11172839506172831,0,0,0.11172839506172831,113.73950617283943,0)" xlink:href="#ad"/></g><path fill="#8b412b" d="M30 0v-248h33v221h125V0H30" id="aq"/><g id="t"><use transform="matrix(0.11172839506172831,0,0,0.11172839506172831,0,0)" xlink:href="#aq"/><use transform="matrix(0.11172839506172831,0,0,0.11172839506172831,22.345679012345663,0)" xlink:href="#T"/><use transform="matrix(0.11172839506172831,0,0,0.11172839506172831,44.691358024691326,0)" xlink:href="#Z"/><use transform="matrix(0.11172839506172831,0,0,0.11172839506172831,67.03703703703698,0)" xlink:href="#S"/><use transform="matrix(0.11172839506172831,0,0,0.11172839506172831,89.38271604938265,0)" xlink:href="#af"/></g><path fill="#8b412b" d="M108 0H70L1-190h34L89-25l56-165h34" id="ar"/><g id="u"><use transform="matrix(0.11172839506172831,0,0,0.11172839506172831,0,0)" xlink:href="#ab"/><use transform="matrix(0.11172839506172831,0,0,0.11172839506172831,13.29567901234567,0)" xlink:href="#T"/><use transform="matrix(0.11172839506172831,0,0,0.11172839506172831,35.64135802469133,0)" xlink:href="#ak"/><use transform="matrix(0.11172839506172831,0,0,0.11172839506172831,55.75246913580243,0)" xlink:href="#T"/><use transform="matrix(0.11172839506172831,0,0,0.11172839506172831,78.09814814814808,0)" xlink:href="#aa"/><use transform="matrix(0.11172839506172831,0,0,0.11172839506172831,86.92469135802462,0)" xlink:href="#ar"/><use transform="matrix(0.11172839506172831,0,0,0.11172839506172831,107.03580246913572,0)" xlink:href="#T"/></g><g id="v"><use transform="matrix(0.11172839506172831,0,0,0.11172839506172831,0,0)" xlink:href="#af"/><use transform="matrix(0.11172839506172831,0,0,0.11172839506172831,20.111111111111097,0)" xlink:href="#ad"/><use transform="matrix(0.11172839506172831,0,0,0.11172839506172831,31.283950617283928,0)" xlink:href="#ae"/><use transform="matrix(0.11172839506172831,0,0,0.11172839506172831,53.62962962962959,0)" xlink:href="#S"/><use transform="matrix(0.11172839506172831,0,0,0.11172839506172831,75.97530864197526,0)" xlink:href="#T"/><use transform="matrix(0.11172839506172831,0,0,0.11172839506172831,98.32098765432093,0)" xlink:href="#W"/><use transform="matrix(0.11172839506172831,0,0,0.11172839506172831,120.6666666666666,0)" xlink:href="#ad"/></g><path fill="#8b412b" d="M210-169c-67 3-38 105-44 169h-31v-121c0-29-5-50-35-48C34-165 62-65 56 0H25l-1-190h30c1 10-1 24 2 32 10-44 99-50 107 0 11-21 27-35 58-36 85-2 47 119 55 194h-31v-121c0-29-5-49-35-48" id="as"/><g id="w"><use transform="matrix(0.11172839506172831,0,0,0.11172839506172831,0,0)" xlink:href="#aa"/><use transform="matrix(0.11172839506172831,0,0,0.11172839506172831,8.826543209876537,0)" xlink:href="#W"/><use transform="matrix(0.11172839506172831,0,0,0.11172839506172831,31.1722222222222,0)" xlink:href="#X"/><use transform="matrix(0.11172839506172831,0,0,0.11172839506172831,42.34506172839503,0)" xlink:href="#R"/><use transform="matrix(0.11172839506172831,0,0,0.11172839506172831,64.6907407407407,0)" xlink:href="#ab"/><use transform="matrix(0.11172839506172831,0,0,0.11172839506172831,77.98641975308637,0)" xlink:href="#as"/><use transform="matrix(0.11172839506172831,0,0,0.11172839506172831,111.39320987654312,0)" xlink:href="#Z"/><use transform="matrix(0.11172839506172831,0,0,0.11172839506172831,133.7388888888888,0)" xlink:href="#ad"/><use transform="matrix(0.11172839506172831,0,0,0.11172839506172831,144.91172839506163,0)" xlink:href="#aa"/><use transform="matrix(0.11172839506172831,0,0,0.11172839506172831,153.73827160493818,0)" xlink:href="#R"/><use transform="matrix(0.11172839506172831,0,0,0.11172839506172831,176.08395061728385,0)" xlink:href="#W"/></g><g id="x"><use transform="matrix(0.11172839506172831,0,0,0.11172839506172831,0,0)" xlink:href="#ac"/><use transform="matrix(0.11172839506172831,0,0,0.11172839506172831,26.814814814814795,0)" xlink:href="#T"/><use transform="matrix(0.11172839506172831,0,0,0.11172839506172831,49.16049382716046,0)" xlink:href="#ad"/></g><g id="y"><use transform="matrix(0.11172839506172831,0,0,0.11172839506172831,0,0)" xlink:href="#ad"/><use transform="matrix(0.11172839506172831,0,0,0.11172839506172831,11.172839506172831,0)" xlink:href="#ab"/><use transform="matrix(0.11172839506172831,0,0,0.11172839506172831,24.4685185185185,0)" xlink:href="#Z"/><use transform="matrix(0.11172839506172831,0,0,0.11172839506172831,46.81419753086416,0)" xlink:href="#aa"/><use transform="matrix(0.11172839506172831,0,0,0.11172839506172831,55.640740740740696,0)" xlink:href="#W"/><use transform="matrix(0.11172839506172831,0,0,0.11172839506172831,77.98641975308635,0)" xlink:href="#aa"/><use transform="matrix(0.11172839506172831,0,0,0.11172839506172831,86.81296296296289,0)" xlink:href="#W"/><use transform="matrix(0.11172839506172831,0,0,0.11172839506172831,109.15864197530854,0)" xlink:href="#an"/></g><g id="z"><use transform="matrix(0.11172839506172831,0,0,0.11172839506172831,0,0)" xlink:href="#Z"/><use transform="matrix(0.11172839506172831,0,0,0.11172839506172831,22.345679012345663,0)" xlink:href="#W"/><use transform="matrix(0.11172839506172831,0,0,0.11172839506172831,44.691358024691326,0)" xlink:href="#S"/></g><g id="A"><use transform="matrix(0.11172839506172831,0,0,0.11172839506172831,0,0)" xlink:href="#af"/><use transform="matrix(0.11172839506172831,0,0,0.11172839506172831,20.111111111111097,0)" xlink:href="#ak"/><use transform="matrix(0.11172839506172831,0,0,0.11172839506172831,40.22222222222219,0)" xlink:href="#am"/><use transform="matrix(0.11172839506172831,0,0,0.11172839506172831,62.567901234567856,0)" xlink:href="#T"/><use transform="matrix(0.11172839506172831,0,0,0.11172839506172831,84.91358024691351,0)" xlink:href="#S"/><use transform="matrix(0.11172839506172831,0,0,0.11172839506172831,107.25925925925918,0)" xlink:href="#ae"/><use transform="matrix(0.11172839506172831,0,0,0.11172839506172831,129.60493827160485,0)" xlink:href="#ah"/><use transform="matrix(0.11172839506172831,0,0,0.11172839506172831,138.4314814814814,0)" xlink:href="#T"/></g></defs></g></svg>